<?xml version="1.0" encoding="utf-8"?>
<!-- Generator: Adobe Illustrator 22.0.1, SVG Export Plug-In . SVG Version: 6.00 Build 0)  -->
<svg version="1.1" id="Capa_1" xmlns="http://www.w3.org/2000/svg" xmlns:xlink="http://www.w3.org/1999/xlink" x="0px" y="0px"
	 viewBox="0 0 480 480" style="enable-background:new 0 0 480 480;" xml:space="preserve">
<g>
	<g>
		<path d="M0,32v352h416V32H0z M384,352H32V64h352V352z"/>
	</g>
</g>
<g>
	<g>
		<polygon points="448,96 448,416 64,416 64,448 480,448 480,96 		"/>
	</g>
</g>
<g>
	<g>
		<path d="M360.8,265.6c-2.6-1.8-6.1-4.3-12.6-4.3c-6.4,0-10,2.5-12.6,4.3c-2.1,1.5-3.3,2.3-6.3,2.3c-3,0-4.1-0.8-6.3-2.3
			c-2.6-1.8-6.1-4.3-12.6-4.3s-10,2.5-12.6,4.3c-2.1,1.5-3.3,2.3-6.3,2.3c-3,0-4.1-0.8-6.3-2.3c-2.6-1.8-6.1-4.3-12.6-4.3
			c-6.4,0-10,2.5-12.6,4.3c-2.1,1.5-3.3,2.3-6.3,2.3c-3,0-4.1-0.8-6.3-2.3c-2.6-1.8-6.1-4.3-12.6-4.3c-6.4,0-10,2.5-12.6,4.3
			c-2.1,1.5-3.3,2.3-6.3,2.3c-3,0-4.1-0.8-6.3-2.3c-2.6-1.8-6.1-4.3-12.6-4.3c-6.4,0-10,2.5-12.6,4.3c-2.1,1.5-3.3,2.3-6.3,2.3v11
			c6.4,0,10-2.5,12.6-4.3c2.1-1.5,3.3-2.3,6.3-2.3c3,0,4.1,0.8,6.3,2.3c2.6,1.8,6.1,4.3,12.6,4.3c6.4,0,10-2.5,12.6-4.3
			c2.1-1.5,3.3-2.3,6.3-2.3s4.1,0.8,6.3,2.3c2.6,1.8,6.1,4.3,12.6,4.3c6.4,0,10-2.5,12.6-4.3c2.1-1.5,3.3-2.3,6.3-2.3
			c3,0,4.1,0.8,6.3,2.3c2.6,1.8,6.1,4.3,12.6,4.3c6.4,0,10-2.5,12.6-4.3c2.1-1.5,3.3-2.3,6.3-2.3s4.1,0.8,6.3,2.3
			c2.6,1.8,6.1,4.3,12.6,4.3c6.4,0,10-2.5,12.6-4.3c2.1-1.5,3.3-2.3,6.3-2.3c3,0,4.1,0.8,6.3,2.3c2.6,1.8,6.1,4.3,12.6,4.3v-11
			C364.1,267.9,362.9,267.1,360.8,265.6z"/>
	</g>
</g>
<g>
	<g>
		<rect x="248.4" y="118.5" width="49.1" height="27.1"/>
	</g>
</g>
<g>
	<g>
		<polygon points="224.5,156.6 224.5,194.9 273,173.3 321.4,194.9 321.4,156.6 		"/>
	</g>
</g>
<g>
	<g>
		<path d="M278.5,187.8v48h-11v-48l-71.3,31.8l15.8,34.1c1.9,1,3.4,2,4.6,2.8c3.1-2.2,9-6.2,18.8-6.2c9.8,0,15.7,4,18.8,6.2
			c3.1-2.2,9-6.2,18.8-6.2c9.8,0,15.7,4,18.8,6.2c3.1-2.2,9-6.2,18.8-6.2c9.8,0,15.7,4,18.8,6.2c1.1-0.8,2.6-1.8,4.6-2.8l15.8-34.1
			L278.5,187.8z M248,224.1c-3.5,0-6.3-2.8-6.3-6.3c0-3.5,2.8-6.3,6.3-6.3c3.5,0,6.3,2.8,6.3,6.3S251.5,224.1,248,224.1z"/>
	</g>
</g>
<g>
	<g>
		<path d="M172.6,265.6c-2.6-1.8-6.1-4.3-12.6-4.3c-6.4,0-10,2.5-12.6,4.3c-2.1,1.5-3.3,2.3-6.3,2.3c-3,0-4.1-0.8-6.3-2.3
			c-2.6-1.8-6.1-4.3-12.6-4.3c-6.4,0-10,2.5-12.6,4.3c-2.1,1.5-3.3,2.3-6.3,2.3c-3,0-4.1-0.8-6.3-2.3c-2.6-1.8-6.1-4.3-12.6-4.3
			c-6.4,0-10,2.5-12.6,4.3c-2.1,1.5-3.3,2.3-6.3,2.3c-3,0-4.1-0.8-6.3-2.3c-5.6-4.3-12.6-4.3-12.6-4.3l0,11c0,0,4.1,0.8,6.3,2.3
			c2.6,1.8,6.1,4.3,12.6,4.3c6.4,0,10-2.5,12.6-4.3c2.1-1.5,3.3-2.3,6.3-2.3c3,0,4.1,0.8,6.3,2.3c2.6,1.8,6.1,4.3,12.6,4.3
			c6.4,0,10-2.5,12.6-4.3c2.1-1.5,3.3-2.3,6.3-2.3s4.1,0.8,6.3,2.3c2.6,1.8,6.1,4.3,12.6,4.3c6.4,0,10-2.5,12.6-4.3
			c2.1-1.5,3.3-2.3,6.3-2.3c3,0,4.1,0.8,6.3,2.3c2.6,1.8,6.1,4.3,12.6,4.3v-11C175.9,267.9,174.7,267.1,172.6,265.6z"/>
	</g>
</g>
<g>
	<g>
		<path d="M361.7,303.1c-2.6-1.8-6.1-4.3-12.6-4.3c-6.4,0-10,2.5-12.6,4.3c-2.1,1.5-3.3,2.3-6.3,2.3c-3,0-4.1-0.8-6.3-2.3
			c-2.6-1.8-6.1-4.3-12.6-4.3c-6.4,0-10,2.5-12.6,4.3c-2.1,1.5-3.3,2.3-6.3,2.3c-3,0-4.1-0.8-6.3-2.3c-2.6-1.8-6.1-4.3-12.6-4.3
			c-6.4,0-10,2.5-12.6,4.3c-2.1,1.5-3.3,2.3-6.3,2.3c-3,0-4.1-0.8-6.3-2.3c-2.6-1.8-6.1-4.3-12.6-4.3c-6.4,0-10,2.5-12.6,4.3
			c-2.1,1.5-3.3,2.3-6.3,2.3c-3,0-4.1-0.8-6.3-2.3c-2.6-1.8-6.1-4.3-12.6-4.3c-6.4,0-10,2.5-12.6,4.3c-2.1,1.5-3.3,2.3-6.3,2.3v11
			c6.4,0,10-2.5,12.6-4.3c2.1-1.5,3.3-2.3,6.3-2.3c3,0,4.1,0.8,6.3,2.3c2.6,1.8,6.1,4.3,12.6,4.3c6.4,0,10-2.5,12.6-4.3
			c2.1-1.5,3.3-2.3,6.3-2.3s4.1,0.8,6.3,2.3c2.6,1.8,6.1,4.3,12.6,4.3c6.4,0,10-2.5,12.6-4.3c2.1-1.5,3.3-2.3,6.3-2.3
			c3,0,4.1,0.8,6.3,2.3c2.6,1.8,6.1,4.3,12.6,4.3c6.4,0,10-2.5,12.6-4.3c2.1-1.5,3.3-2.3,6.3-2.3c3,0,4.1,0.8,6.3,2.3
			c2.6,1.8,6.1,4.3,12.6,4.3c6.4,0,10-2.5,12.6-4.3c2.1-1.5,3.3-2.3,6.3-2.3c3,0,4.1,0.8,6.3,2.3c2.6,1.8,6.1,4.3,12.6,4.3v-11
			C365,305.4,363.8,304.6,361.7,303.1z"/>
	</g>
</g>
<g>
	<g>
		<path d="M173.5,303.1c-2.6-1.8-6.1-4.3-12.6-4.3c-6.4,0-10,2.5-12.6,4.3c-2.1,1.5-3.3,2.3-6.3,2.3c-3,0-4.1-0.8-6.3-2.3
			c-2.6-1.8-6.1-4.3-12.6-4.3c-6.4,0-10,2.5-12.6,4.3c-2.1,1.5-3.3,2.3-6.3,2.3c-3,0-4.1-0.8-6.3-2.3c-2.6-1.8-6.1-4.3-12.6-4.3
			c-6.4,0-10,2.5-12.6,4.3c-2.1,1.5-3.3,2.3-6.3,2.3c-3,0-4.1-0.8-6.3-2.3c-5.6-4.3-12.6-4.3-12.6-4.3l0,11c0,0,4.1,0.8,6.3,2.3
			c2.6,1.8,6.1,4.3,12.6,4.3c6.4,0,10-2.5,12.6-4.3c2.1-1.5,3.3-2.3,6.3-2.3c3,0,4.1,0.8,6.3,2.3c2.6,1.8,6.1,4.3,12.6,4.3
			c6.4,0,10-2.5,12.6-4.3c2.1-1.5,3.3-2.3,6.3-2.3c3,0,4.1,0.8,6.3,2.3c2.6,1.8,6.1,4.3,12.6,4.3c6.4,0,10-2.5,12.6-4.3
			c2.1-1.5,3.3-2.3,6.3-2.3c3,0,4.1,0.8,6.3,2.3c2.6,1.8,6.1,4.3,12.6,4.3v-11C176.8,305.4,175.6,304.6,173.5,303.1z"/>
	</g>
</g>
</svg>
