<?xml version="1.0" encoding="iso-8859-1"?>
<!-- Generator: Adobe Illustrator 19.0.0, SVG Export Plug-In . SVG Version: 6.00 Build 0)  -->
<svg xmlns="http://www.w3.org/2000/svg" xmlns:xlink="http://www.w3.org/1999/xlink" version="1.1" id="Capa_1" x="0px" y="0px" viewBox="0 0 512 512" style="enable-background:new 0 0 512 512;" xml:space="preserve" width="512px" height="512px">
<g>
	<g>
		<g>
			<path d="M477.312,471.104c-8.368,12.56-7.776,12.56-16.16,0c-6.533-13.409-19.798-22.244-34.688-23.104     c-14.883,0.872-28.136,9.713-34.656,23.12c-1.79,3.372-4.15,6.409-6.976,8.976l50.4-151.216L384,298.144V160h-32V96h-80V64h-32     v32h-80v64h-32v138.144L76.8,328.88l50.448,151.36c-1.728-0.656-3.632-3.584-7.312-9.104     c-6.511-13.425-19.776-22.277-34.672-23.136c-14.881,0.867-28.13,9.71-34.64,23.12c-8.304,12.512-7.632,12.544-16,0     C28.12,457.713,14.876,448.869,0,448v32c1.792,0,3.824,2.624,8,8.864c6.497,13.408,19.734,22.258,34.608,23.136     c14.88-0.87,28.128-9.713,34.64-23.12c8.336-12.496,7.664-12.528,16,0c6.507,13.412,19.758,22.256,34.64,23.12     c14.88-0.87,28.128-9.713,34.64-23.12c8.336-12.528,7.68-12.528,16,0c6.515,13.419,19.779,22.264,34.672,23.12     c14.874-0.878,28.111-9.728,34.608-23.136c8.384-12.576,7.696-12.432,16,0c6.5,13.399,19.726,22.245,34.592,23.136     c14.887-0.862,28.144-9.706,34.656-23.12c8.368-12.544,7.728-12.496,16,0c6.531,13.427,19.813,22.271,34.72,23.12     c14.883-0.872,28.136-9.713,34.656-23.12c8.416-12.592,7.808-12.448,16.112,0c6.534,13.41,19.796,22.25,34.688,23.12     c14.92-0.832,28.221-9.672,34.768-23.104c4.192-6.272,6.24-8.896,8-8.896v-32C497.11,448.86,483.845,457.695,477.312,471.104z      M192,128h128v32H192V128z M240,451.888c-7.793,4.713-14.27,11.317-18.832,19.2c-8.368,12.624-7.712,12.4-16,0     c-6.523-13.385-19.759-22.211-34.624-23.088c-6.579-0.079-13.031,1.81-18.528,5.424L115.2,343.12L240,268.256V451.888z      M256,221.344l-96,57.6V192h192v86.944L256,221.344z M360,453.632c-5.582-3.762-12.181-5.727-18.912-5.632     c-14.883,0.872-28.136,9.713-34.656,23.12c-8.288,12.448-7.632,12.592-16,0c-4.5-7.746-10.828-14.272-18.432-19.008V268.256     l124.8,74.864L360,453.632z" fill="#FFFFFF"/>
			<rect x="240" width="32" height="32" fill="#FFFFFF"/>
			<rect x="320" y="352" width="32" height="32" fill="#FFFFFF"/>
			<rect x="160" y="352" width="32" height="32" fill="#FFFFFF"/>
		</g>
	</g>
</g>
<g>
</g>
<g>
</g>
<g>
</g>
<g>
</g>
<g>
</g>
<g>
</g>
<g>
</g>
<g>
</g>
<g>
</g>
<g>
</g>
<g>
</g>
<g>
</g>
<g>
</g>
<g>
</g>
<g>
</g>
</svg>
