<?xml version="1.0" encoding="utf-8"?>
<!-- Generator: Adobe Illustrator 22.0.1, SVG Export Plug-In . SVG Version: 6.00 Build 0)  -->
<svg version="1.1" id="Capa_1" xmlns="http://www.w3.org/2000/svg" xmlns:xlink="http://www.w3.org/1999/xlink" x="0px" y="0px"
	 viewBox="0 0 495.4 495.4" style="enable-background:new 0 0 495.4 495.4;" xml:space="preserve">
<g>
	<g>
		<g>
			<path d="M433.5,230.5l-58.3-58.3v-67.3c0-12.2-9.9-22-22.1-22c-12.2,0-22,9.9-22,22v23.2l-43.4-43.4c-21.5-21.4-58.8-21.4-80.2,0
				L61.9,230.5c-8.6,8.6-8.6,22.6,0,31.2c8.6,8.6,22.6,8.6,31.2,0l145.7-145.7c4.7-4.7,13.1-4.7,17.8,0l145.8,145.8
				c4.3,4.3,10,6.5,15.6,6.5c5.6,0,11.3-2.1,15.6-6.5C442.2,253,442.2,239.1,433.5,230.5z"/>
			<path d="M255.4,157.7c-4.2-4.2-11.1-4.2-15.3,0L111.8,285.9c-2,2-3.2,4.8-3.2,7.7V387c0,21.9,17.8,39.7,39.7,39.7h63.5v-98.3
				h71.7v98.3H347c21.9,0,39.7-17.8,39.7-39.7v-93.5c0-2.9-1.1-5.6-3.2-7.7L255.4,157.7z"/>
		</g>
	</g>
</g>
</svg>
